<svg xmlns="http://www.w3.org/2000/svg" xmlns:svg="http://www.w3.org/2000/svg" id="svg5288" width="22" height="22" version="1.1"><metadata id="metadata5294"/><style id="style5282" type="text/css">.icon-canvas-transparent,.icon-vs-out{opacity:0;fill:#f6f6f6}</style><path id="canvas" d="M 16,22 H 0 V 6 h 16 z" class="icon-canvas-transparent" style="opacity:0;fill:#f6f6f6"/><path id="outline" d="M 4,21 C 3.03,21 2,20.299 2,19 V 9 C 2,7.701 3.03,7 4,7 h 6.061 L 14,10.556 V 19 c 0,0.97 -0.701,2 -2,2 z" class="icon-vs-out" style="opacity:0;fill:#f6f6f6"/><path style="fill:#c5c5c5;fill-opacity:1;stroke:none;stroke-width:1;stroke-linecap:round;stroke-linejoin:round;stroke-miterlimit:4;stroke-dasharray:none;stroke-opacity:1" id="rect8154" d="M 3.7753906 4 C 3.3458795 4 3 4.3467621 3 4.7773438 L 3 16.222656 C 3 16.653238 3.3458795 17 3.7753906 17 L 18.224609 17 C 18.654121 17 19 16.653238 19 16.222656 L 19 4.7773438 C 19 4.3467621 18.654121 4 18.224609 4 L 3.7753906 4 z M 5 7 L 17 7 L 17 15 L 5 15 L 5 7 z"/><g id="g4263" transform="translate(0.229641)"><path id="rect931" d="m 8.999992,8.0003893 c -0.07625,0 -0.152408,0.024243 -0.21082,0.08242 L 6.7732095,9.9969109 5.9589134,10.766459 c -0.1168232,0.110538 -0.1168232,0.288951 0,0.400458 l 0.8142961,0.771875 2.0159625,1.914101 c 0.116823,0.110538 0.304823,0.110538 0.421635,0 l 0.814297,-0.771924 c 0.116823,-0.110538 0.116823,-0.288949 0,-0.400457 L 8.2199585,10.966445 10.025104,9.2548016 c 0.116823,-0.1105374 0.116823,-0.2894349 0,-0.4004572 L 9.210815,8.08242 C 9.152385,8.027636 9.076225,8 9,8 Z" style="fill:#c5c5c5;fill-opacity:1;stroke:none;stroke-width:.20000002;stroke-linecap:round;stroke-linejoin:round;stroke-miterlimit:4;stroke-dasharray:none;stroke-opacity:1"/><path style="fill:#c5c5c5;fill-opacity:1;stroke:none;stroke-width:.20000002;stroke-linecap:round;stroke-linejoin:round;stroke-miterlimit:4;stroke-dasharray:none;stroke-opacity:1" id="path8177" d="m 12.540726,8.0003893 c 0.07625,0 0.152408,0.024243 0.21082,0.08242 l 2.015962,1.9141018 0.814296,0.7695479 c 0.116824,0.110538 0.116824,0.288951 0,0.400459 l -0.814296,0.771875 -2.015962,1.9141 c -0.116824,0.110538 -0.304823,0.110538 -0.421636,0 l -0.814296,-0.771924 c -0.116823,-0.110538 -0.116823,-0.288949 0,-0.400457 l 1.805145,-1.714067 -1.805145,-1.7116434 c -0.116823,-0.1105374 -0.116823,-0.2894349 0,-0.4004572 L 12.329903,8.08242 C 12.388333,8.027636 12.464492,8 12.540717,8 Z"/></g></svg>