<svg xmlns="http://www.w3.org/2000/svg" xmlns:svg="http://www.w3.org/2000/svg" id="svg5288" width="16" height="16" version="1.1"><metadata id="metadata5294"/><style id="style5282" type="text/css">.icon-canvas-transparent,.icon-vs-out{opacity:0;fill:#f6f6f6}</style><path id="canvas" d="M16 16h-16v-16h16v16z" class="icon-canvas-transparent" style="fill:gray;fill-opacity:1"/><path id="outline" d="m 3.2251816,16.355932 c -1.1578935,0 -2.3874092,-0.836787 -2.3874092,-2.387409 V 2.031477 c 0,-1.55062228 1.2295157,-2.3874092 2.3874092,-2.3874092 h 7.2350434 l 4.702003,4.2448136 V 13.968523 c 0,1.157893 -0.836787,2.387409 -2.38741,2.387409 z" class="icon-vs-out" style="opacity:0;fill:gray;stroke-width:1;fill-opacity:1"/><path style="color:#000;font-style:normal;font-variant:normal;font-weight:400;font-stretch:normal;font-size:medium;line-height:normal;font-family:sans-serif;font-variant-ligatures:normal;font-variant-position:normal;font-variant-caps:normal;font-variant-numeric:normal;font-variant-alternates:normal;font-feature-settings:normal;text-indent:0;text-align:start;text-decoration:none;text-decoration-line:none;text-decoration-style:solid;text-decoration-color:#000;letter-spacing:normal;word-spacing:normal;text-transform:none;writing-mode:lr-tb;direction:ltr;text-orientation:mixed;dominant-baseline:auto;baseline-shift:baseline;text-anchor:start;white-space:normal;shape-padding:0;clip-rule:nonzero;display:inline;overflow:visible;visibility:visible;opacity:1;isolation:auto;mix-blend-mode:normal;color-interpolation:sRGB;color-interpolation-filters:linearRGB;solid-color:#000;solid-opacity:1;vector-effect:none;fill:gray;fill-opacity:1;fill-rule:nonzero;stroke:none;stroke-width:1;stroke-linecap:round;stroke-linejoin:round;stroke-miterlimit:4;stroke-dasharray:none;stroke-dashoffset:0;stroke-opacity:1;color-rendering:auto;image-rendering:auto;shape-rendering:auto;text-rendering:auto;enable-background:accumulate" id="rect5898" d="M 2.6586382,2.4254927 A 0.59691199,0.59691199 0 0 0 2.0617859,3.022345 V 13.544198 A 0.59691199,0.59691199 0 0 0 2.6586382,14.14105 H 13.180492 a 0.59691199,0.59691199 0 0 0 0.596852,-0.596852 V 9.4967936 H 12.583639 V 12.947346 H 3.2554905 V 3.6191973 H 6.6244419 V 2.4254927 Z"/><path style="fill:gray;fill-opacity:1;stroke:none;stroke-width:.2;stroke-linecap:round;stroke-linejoin:round;stroke-miterlimit:4;stroke-dasharray:none;stroke-opacity:1" id="path5900" d="m 8.1928063,1.8841352 c 0.072582,-0.072582 0.169375,-0.1207764 0.2832891,-0.1180538 l 3.8376846,-2.605e-4 1.546522,-0.00371 c 0.222006,-3.986e-4 0.400848,0.1784434 0.401422,0.4014225 l -0.0014,1.5488543 -2.6e-4,3.8376845 c -3.98e-4,0.2220065 -0.179353,0.400961 -0.401351,0.40135 l -1.549039,0.00118 C 12.087683,7.9529927 11.908841,7.7741506 11.908266,7.5511718 l 1.03e-4,-3.4364926 -3.4340618,0.00253 C 8.2523,4.1176097 8.072972,3.9382819 8.0728845,3.7157887 l 0.00132,-1.548895 C 8.0749093,2.0563614 8.1197076,1.9561607 8.1922657,1.883603 Z"/><rect style="fill:gray;fill-opacity:1;stroke:none;stroke-width:1;stroke-linecap:round;stroke-linejoin:round;stroke-miterlimit:4;stroke-dasharray:none;stroke-opacity:1" id="rect5902" width="2.387" height="6.677" x="10.138" y="-6.112" transform="rotate(45)"/></svg>