<svg xmlns="http://www.w3.org/2000/svg" xmlns:xlink="http://www.w3.org/1999/xlink" width="10mm" height="10mm" viewBox="0 0 10 10"><defs><linearGradient id="b" x2="24" gradientTransform="scale(1.57482) rotate(-90 18 6)" gradientUnits="userSpaceOnUse" xlink:href="#a"/><linearGradient id="a"><stop offset="0" stop-color="gray"/><stop offset="1" stop-color="gray"/></linearGradient></defs><path fill="url(#b)" d="M18.898 0C8.466 0 0 8.466 0 18.898c0 10.431 8.466 18.897 18.898 18.897 10.431 0 18.897-8.466 18.897-18.897C37.795 8.466 29.33 0 18.898 0" transform="scale(.26458)"/><path fill="gray" d="M.36 5C.36 7.56 2.44 9.64 5 9.64c2.56 0 4.64-2.08 4.64-4.64C9.64 2.44 7.56.36 5 .36 2.44.36.36 2.44.36 5"/><path stroke="#fff" stroke-width="1" d="M3 3l4 4M7 3L3 7"/></svg>