<svg xmlns="http://www.w3.org/2000/svg" xmlns:svg="http://www.w3.org/2000/svg" id="svg5288" width="22" height="22" version="1.1"><metadata id="metadata5294"/><style id="style5282" type="text/css">.icon-canvas-transparent,.icon-vs-out{opacity:0;fill:#f6f6f6}</style><path id="canvas" d="M 16,22 H 0 V 6 h 16 z" class="icon-canvas-transparent" style="opacity:0;fill:gray;fill-opacity:1"/><path id="outline" d="M 4,21 C 3.03,21 2,20.299 2,19 V 9 C 2,7.701 3.03,7 4,7 h 6.061 L 14,10.556 V 19 c 0,0.97 -0.701,2 -2,2 z" class="icon-vs-out" style="opacity:0;fill:gray;fill-opacity:1"/><path style="fill:gray;fill-opacity:1;stroke:none;stroke-width:1;stroke-linecap:round;stroke-linejoin:round;stroke-miterlimit:4;stroke-dasharray:none;stroke-opacity:1" id="rect8154" d="M 3.7753906 4 C 3.3458795 4 3 4.3467621 3 4.7773438 L 3 16.222656 C 3 16.653238 3.3458795 17 3.7753906 17 L 18.224609 17 C 18.654121 17 19 16.653238 19 16.222656 L 19 4.7773438 C 19 4.3467621 18.654121 4 18.224609 4 L 3.7753906 4 z M 5 7 L 17 7 L 17 15 L 5 15 L 5 7 z"/></svg>